<?xml version="1.0" encoding="UTF-8"?>
<svg id="Layer_1" xmlns="http://www.w3.org/2000/svg" version="1.1" viewBox="0 0 1350 235.13">
  <!-- Generator: Adobe Illustrator 30.3.0, SVG Export Plug-In . SVG Version: 2.1.3 Build 182)  -->
  <defs>
    <style>
      .st0 {
        fill: #fff;
      }

      .st1 {
        fill: #c92027;
      }

      .st2 {
        fill: #ca2127;
      }
    </style>
  </defs>
  <g>
    <path class="st0" d="M241.19,170.09v-88.89h35.84v11.43h-20.79v25.4h19.84v11.43h-19.84v29.21h20.79v11.43h-35.84Z"/>
    <path class="st0" d="M322.18,170.09h-12.04l-18.74-88.89h15.05l9.99,57.65,9.85-57.65h14.5l-18.6,88.89Z"/>
    <path class="st0" d="M390.17,170.09h-24.21c-7.52,0-10.12-2.41-10.12-9.14v-69.84c0-6.86,3.01-9.9,11.22-9.9h23.39c8.21,0,11.08,2.54,11.08,9.14v70.48c0,7.11-2.87,9.27-11.35,9.27ZM386.47,92.63h-15.59v66.03h15.59v-66.03Z"/>
    <path class="st0" d="M489.21,170.09h-22.57c-9.03,0-11.76-2.54-11.76-9.14v-69.84c0-7.36,2.74-9.9,11.22-9.9h21.48c8.21,0,11.9,2.29,11.9,9.14v19.68h-14.91v-17.4h-14.64v66.03h15.59v-22.98h15.05v24.76c0,7.11-3.69,9.65-11.35,9.65Z"/>
    <path class="st0" d="M555.15,170.09l-3.97-18.67h-16.55l-4.51,18.67h-14.5l22.02-88.89h11.49l21.61,88.89h-15.59ZM542.97,115.11l-5.47,24.25h10.53l-5.06-24.25Z"/>
    <path class="st0" d="M619.99,170.09l-16.69-45.97v-7.49h13.13v-24h-15.59v77.46h-15.05v-88.89h32.83c11.9,0,12.86,3.94,12.86,9.14v29.08c0,4.95-1.92,8.51-8.48,8.51h-4.24l15.87,42.16h-14.64Z"/>
    <path class="st0" d="M651.04,170.09v-88.89h15.05v77.46h22.57v11.43h-37.62Z"/>
    <path class="st0" d="M726.29,92.63v77.46h-15.05v-77.46h-14.64v-11.43h44.46v11.43h-14.77Z"/>
    <path class="st0" d="M791.81,170.09h-24.21c-7.52,0-10.12-2.41-10.12-9.14v-69.84c0-6.86,3.01-9.9,11.22-9.9h23.39c8.21,0,11.08,2.54,11.08,9.14v70.48c0,7.11-2.87,9.27-11.35,9.27ZM788.12,92.63h-15.59v66.03h15.59v-66.03Z"/>
    <path class="st0" d="M857.47,170.09l-20.93-50.54v50.54h-14.23v-88.89h9.85l21.75,50.54v-50.54h14.09v88.89h-10.53Z"/>
    <path class="st0" d="M948.31,92.63v77.46h-15.05v-77.46h-14.64v-11.43h44.46v11.43h-14.77Z"/>
    <path class="st0" d="M1013.7,170.09l-16.69-45.97v-7.49h13.13v-24h-15.59v77.46h-15.05v-88.89h32.83c11.9,0,12.86,3.94,12.86,9.14v29.08c0,4.95-1.92,8.51-8.48,8.51h-4.24l15.87,42.16h-14.64Z"/>
    <path class="st0" d="M1046.12,170.09v-88.89h35.84v11.43h-20.79v25.4h19.83v11.43h-19.83v29.21h20.79v11.43h-35.84Z"/>
    <path class="st0" d="M1135.58,170.09l-20.93-50.54v50.54h-14.23v-88.89h9.85l21.75,50.54v-50.54h14.09v88.89h-10.53Z"/>
    <path class="st0" d="M1192.9,170.09h-27.63v-88.89h27.22c11.9,0,18.47,7.11,18.47,17.4v55.87c0,9.14-8.48,15.62-18.06,15.62ZM1195.91,96.82c0-2.67-1.64-4.19-4.38-4.19h-11.22v66.03h10.4c2.46,0,5.2-1.4,5.2-4.06v-57.78Z"/>
    <path class="st0" d="M1260.76,170.09h-19.15c-7.52,0-11.49-3.68-11.49-9.02v-24h15.05v21.59h11.9v-19.68l-24.21-24.25c-2.6-2.67-2.74-3.68-2.74-7.37v-17.78c0-4.19,4.1-8.38,11.9-8.38h18.33c8.89,0,11.35,3.56,11.35,9.27v19.56h-14.77v-17.4h-11.76v14.6l22.71,22.73c1.23,1.14,3.83,4.19,3.83,8.25v22.73c0,3.68-1.78,9.14-10.94,9.14Z"/>
  </g>
  <path class="st1" d="M81.27,180.42c-5.26,0-8.81-2.72-10-7.65l-.08-.35.02-96.95c.41-3.21,2.35-8.6,10.7-8.62,31-.03,59.38-.02,86.78.01.69,0,1.36,0,2.03-.02,4.43-.06,8.62-.11,11.46,2.69,1.72,1.7,2.55,4.08,2.55,7.28h0c.01,57.28.04,85.7.09,92.15.04,4.03-.83,6.79-2.73,8.69-2.79,2.79-6.79,2.75-11.43,2.71-.6,0-1.21-.01-1.84-.01l-22.57.02c-15.56.01-37.22.03-64.99.05ZM77.2,171.68c.47,1.66,1.41,2.74,4.08,2.74,27.77-.03,49.43-.04,64.99-.05l22.57-.02c.65,0,1.29,0,1.9.01,3.28.03,6.12.06,7.13-.95.65-.65.99-2.17.97-4.39-.05-6.47-.08-34.9-.09-92.2h0c0-1.03-.13-2.38-.77-3.01-1.05-1.04-4.16-1-7.16-.96-.69,0-1.4.02-2.11.02-27.39-.04-55.77-.04-86.76-.01-3.86.01-4.5,1.56-4.74,3.2v95.62Z"/>
  <g>
    <path class="st2" d="M103.46,106.68l7.72-10.38c.08-.11.21-.18.35-.18h28.23c.36,0,.57.41.35.7l-7.81,10.38c-.08.11-.21.18-.35.18h-28.14c-.36,0-.57-.41-.35-.7Z"/>
    <path class="st2" d="M94.7,128.91l-3.92-5.02c-.19-.24-.18-.57,0-.81l3.91-4.86c.12-.15.31-.24.51-.24h28.06c.53,0,.84.6.53,1.03l-2.95,4.17c-.16.23-.16.53,0,.75l2.95,4.2c.3.43,0,1.03-.53,1.03h-28.06c-.2,0-.39-.09-.51-.25Z"/>
    <path class="st2" d="M139.76,151.31h-28.14c-.14,0-.27-.06-.35-.18l-7.81-10.38c-.22-.29-.01-.7.35-.7h28.23c.14,0,.27.07.35.18l7.72,10.38c.22.29,0,.7-.35.7Z"/>
    <path class="st2" d="M163.41,105.98c0,.69-.56,1.25-1.25,1.25h-6.68c-.39,0-.76.18-1,.5l-11.33,14.99c-.33.44-.34,1.05,0,1.5l11.33,15.2c.24.32.61.5,1,.5h6.67c.69,0,1.25.56,1.25,1.25v9.15c0,.49-.4.89-.89.89h-13.04c-.28,0-.54-.13-.71-.36l-20.08-26.93c-.24-.32-.23-.75,0-1.06l20.07-26.56c.17-.22.43-.35.71-.35h13.05c.49,0,.89.4.89.89v9.15Z"/>
  </g>
</svg>