<?xml version="1.0" encoding="UTF-8"?>
<svg id="Layer_1" xmlns="http://www.w3.org/2000/svg" version="1.1" viewBox="0 0 279.49 235.13">
  <!-- Generator: Adobe Illustrator 30.3.0, SVG Export Plug-In . SVG Version: 2.1.3 Build 182)  -->
  <defs>
    <style>
      .st0 {
        fill: #ca2127;
      }
    </style>
  </defs>
  <path class="st0" d="M80.17,74.73l19.52-26.24c.21-.28.54-.45.89-.45h71.37c.92,0,1.44,1.05.89,1.78l-19.75,26.24c-.21.28-.54.44-.89.44h-71.14c-.91,0-1.44-1.04-.89-1.77Z"/>
  <path class="st0" d="M58.03,130.92l-9.91-12.69c-.47-.6-.46-1.45.02-2.05l9.89-12.28c.31-.39.79-.61,1.28-.61h70.94c1.34,0,2.12,1.51,1.35,2.6l-7.45,10.55c-.4.57-.4,1.33,0,1.9l7.47,10.62c.77,1.09-.01,2.6-1.35,2.6H59.33c-.51,0-.99-.23-1.3-.63Z"/>
  <path class="st0" d="M171.95,187.55h-71.14c-.35,0-.68-.16-.89-.44l-19.75-26.24c-.55-.73-.03-1.78.89-1.78h71.37c.35,0,.68.17.89.45l19.52,26.24c.55.73.02,1.77-.89,1.77Z"/>
  <path class="st0" d="M231.72,72.96c0,1.74-1.41,3.15-3.15,3.15h-16.88c-.99,0-1.92.46-2.52,1.25l-28.64,37.89c-.85,1.12-.85,2.66-.01,3.79l28.65,38.43c.6.8,1.53,1.27,2.53,1.27h16.87c1.74,0,3.15,1.41,3.15,3.15v23.14c0,1.24-1,2.24-2.24,2.24h-32.97c-.71,0-1.37-.33-1.8-.9l-50.75-68.08c-.6-.8-.59-1.9,0-2.69l50.75-67.14c.42-.56,1.09-.89,1.79-.89h32.98c1.24,0,2.24,1,2.24,2.24v23.14Z"/>
</svg>