<?xml version="1.0" encoding="UTF-8"?>
<svg id="Layer_1" xmlns="http://www.w3.org/2000/svg" version="1.1" viewBox="0 0 1080 1080">
  <!-- Generator: Adobe Illustrator 30.3.0, SVG Export Plug-In . SVG Version: 2.1.3 Build 182)  -->
  <path d="M497.11,412.51c-.26,4.31-.73,9.15-1.46,14.51-4.37,32.64-30.29,60.33-61.61,68.52-7.13,1.87-21.69,2.77-43.68,2.76-98.77-.1-160.99-.16-186.65-.14-38.95.02-70.58-24.74-82-62.14-2.27-7.38-3.21-22.38-2.88-44.99.02-1.63.06-63.46.1-185.51.02-47.49,36.61-84.6,84.36-85.05,30.1-.3,99.93-.32,209.51-.06,47.28.1,83.79,37.87,83.95,85.17.1,35.29.12,91.86.04,169.71,0,.12.1.24.22.24.14.02.26-.08.28-.2,3.56-15.96,11.08-29.68,22.56-41.16,87.02-87.06,136.46-136.5,148.35-148.37,32.95-32.83,85.31-33.78,118.41-.71,61.71,61.63,111.01,110.89,147.92,147.8,33.44,33.46,34.39,86.33,1.1,119.89-15.23,15.37-58.24,58.42-129.02,129.1-.24.26-.08.67.28.67,29.66.18,48.84.16,57.5-.04,13.8-.33,23.72.32,29.74,1.95,30.53,8.21,53.28,29.74,61.82,60.09,2.26,8.01,3.21,22.79,2.85,44.34-.12,7.4-.12,69.03-.02,184.86.04,48.28-36.49,86.05-84.91,86.35-1.4.02-70.58.02-207.56.02-38.56,0-71.96-24.62-82.47-61.65-2.05-7.2-3.07-19.49-3.09-36.83-.06-64.74.02-131.54.24-200.37.02-11.48,3.64-23.54,10.82-36.2,12.68-22.3,32.08-36.14,58.2-41.49.39-.08.53-.55.26-.85-66.86-66.92-108.69-108.71-125.46-125.38-14.88-14.78-22.36-26.08-27.28-44.88-.02-.1-.12-.16-.22-.16-.12.02-.2.1-.2.2M454.83,204.91c0-23.33-18.9-42.22-42.22-42.22h-209.51c-23.33,0-42.22,18.9-42.22,42.22v209.51c0,23.32,18.9,42.22,42.22,42.22h209.51c23.33,0,42.22-18.9,42.22-42.22v-209.51M728.22,582.59c2.58,0,5.04-.16,7.36-.47,9.33-1.26,17.13-5.02,23.36-11.3,13.13-13.17,62.26-62.32,147.35-147.41,13.01-13.01,16.34-32.59,8.25-48.93-1.91-3.86-7.05-9.96-15.43-18.32-60.15-60.01-105.58-105.44-136.27-136.27-10.73-10.77-19.9-16.87-34.64-16.87s-23.91,6.1-34.66,16.89c-30.69,30.82-76.1,76.25-136.25,136.27-8.37,8.36-13.52,14.47-15.41,18.32-8.09,16.36-4.76,35.94,8.25,48.93,85.11,85.09,134.24,134.22,147.37,147.39,6.26,6.28,14.03,10.04,23.36,11.3,2.32.31,4.78.47,7.36.47M665,624.58c-23.32,0-42.22,18.9-42.22,42.22v209.51c0,23.32,18.9,42.22,42.22,42.22h209.51c23.32,0,42.22-18.9,42.22-42.22v-209.51c0-23.33-18.9-42.22-42.22-42.22h-209.51ZM496.81,666.93v209.23c0,46.59-37.75,84.34-84.34,84.34h-209.23c-46.59,0-84.34-37.75-84.34-84.34v-209.23c0-46.59,37.75-84.34,84.34-84.34h209.23c46.59,0,84.34,37.75,84.34,84.34M412.61,918.52c23.33,0,42.22-18.9,42.22-42.22v-209.51c0-23.33-18.9-42.22-42.22-42.22h-209.49c-23.33,0-42.22,18.9-42.22,42.22v209.51c0,23.32,18.9,42.22,42.22,42.22h209.49Z"/>
</svg>