<?xml version="1.0" encoding="UTF-8"?>
<svg id="Layer_1" xmlns="http://www.w3.org/2000/svg" version="1.1" viewBox="0 0 1080 1080">
  <!-- Generator: Adobe Illustrator 30.3.0, SVG Export Plug-In . SVG Version: 2.1.3 Build 182)  -->
  <path d="M539.99,475.53c-106.64,0-193.39-86.76-193.39-193.4s86.75-193.4,193.39-193.4,193.42,86.76,193.42,193.4-86.77,193.4-193.42,193.4ZM539.99,131.69c-82.95,0-150.42,67.49-150.42,150.43s67.48,150.43,150.42,150.43,150.45-67.49,150.45-150.43-67.5-150.43-150.45-150.43Z"/>
  <path d="M926.82,991.28c-11.88,0-21.48-9.62-21.48-21.48,0-201.44-163.88-365.34-365.35-365.34s-365.32,163.9-365.32,365.34c0,11.86-9.61,21.48-21.48,21.48s-21.48-9.62-21.48-21.48c0-225.15,183.16-408.31,408.29-408.31s408.32,183.16,408.32,408.31c0,11.86-9.61,21.48-21.48,21.48Z"/>
</svg>